<svg id="Layer_3" enable-background="new 0 0 64 64" height="512" viewBox="0 0 64 64" width="512" xmlns="http://www.w3.org/2000/svg"><g><path d="m44.293 28.293-11.707 11.707h-4.586v-2h-.026c1.928-1.443 3.326-3.557 3.824-6h.202c2.206 0 4-1.794 4-4 0-1.006-.385-1.915-1-2.618v-3.382c0-7.168-5.832-13-13-13s-13 5.832-13 13v3.382c-.615.703-1 1.612-1 2.618 0 2.206 1.794 4 4 4h.202c.498 2.443 1.896 4.557 3.824 6h-.026v2h-5c-5.514 0-10 4.486-10 10v12c0 .553.447 1 1 1h40c.553 0 1-.447 1-1v-12c0-4.768-3.357-8.761-7.83-9.756l10.244-10.244h17.586v-2h-18c-.266 0-.52.105-.707.293zm-27.762 13.707 3.892 4.67-3.839 1.919-2.197-6.589zm5.289 11h.361l1.6 8h-3.561zm.562-2h-.764l-1.076-2.153 1.458-.729 1.458.729zm1.195-4.33 3.892-4.67h2.144l-2.197 6.59zm8.423-16.67v-4c1.103 0 2 .897 2 2s-.897 2-2 2zm-22-2c0-1.103.897-2 2-2v4c-1.103 0-2-.897-2-2zm2-4c-.347 0-.678.058-1 .142v-2.142c0-6.065 4.935-11 11-11s11 4.935 11 11v2.142c-.322-.084-.653-.142-1-.142 0-.553-.447-1-1-1-1.565 0-3.061-.748-4-2.001l-1.2-1.6c-.377-.502-1.223-.502-1.6 0l-1.2 1.601c-.939 1.252-2.435 2-4 2h-6c-.553 0-1 .447-1 1zm2 6v-5h5c2.191 0 4.285-1.047 5.6-2.8l.4-.534.4.533c1.113 1.484 2.783 2.463 4.6 2.728v5.073c0 4.411-3.589 8-8 8s-8-3.589-8-8zm8 10c1.422 0 2.774-.303 4-.841v1.479l-4 4.8-4-4.8v-1.479c1.226.538 2.578.841 4 .841zm-19 10c0-4.411 3.589-8 8-8h1.28l2.772 8.316c.091.274.298.496.565.607.123.052.253.077.383.077.153 0 .307-.035.447-.105l2.305-1.153 1.199 2.399-1.771 8.859h-9.18v-6h-2v6h-4zm38 0v11h-4v-6h-2v6h-9.18l-1.772-8.859 1.199-2.399 2.305 1.153c.141.07.295.105.448.105.13 0 .26-.025.383-.076.268-.111.475-.333.565-.607l2.772-8.317h1.28c4.411 0 8 3.589 8 8z"/><path d="m61 24v-14c0-.553-.447-1-1-1h-4c-.553 0-1 .447-1 1v14h-2v-8c0-.553-.447-1-1-1h-4c-.553 0-1 .447-1 1v8h-2v-5c0-.553-.447-1-1-1h-4c-.553 0-1 .447-1 1v5h-2v2h26v-2zm-4-13h2v13h-2zm-8 6h2v7h-2zm-8 3h2v4h-2z"/><path d="m46.414 7h5.586c.266 0 .52-.105.707-.293l2.293-2.293v2.586h2v-5c0-.553-.447-1-1-1h-5v2h2.586l-2 2h-5.586c-.266 0-.52.105-.707.293l-6 6 1.414 1.414z"/></g></svg>